<svg xmlns="http://www.w3.org/2000/svg" viewBox="0 0 512 512" width="512" height="512">
  <defs>
    <filter id="sh" x="-20%" y="-20%" width="140%" height="140%">
      <feGaussianBlur in="SourceAlpha" stdDeviation="5"/>
      <feOffset dx="0" dy="4" result="o"/>
      <feComponentTransfer><feFuncA type="linear" slope="0.28"/></feComponentTransfer>
      <feMerge><feMergeNode/><feMergeNode in="SourceGraphic"/></feMerge>
    </filter>
  </defs>
  <g filter="url(#sh)">
    <g transform="translate(256 256)">
      <!-- white die-cut base (stroke creates the border) -->
      <g fill="#ffffff" stroke="#ffffff" stroke-width="18" stroke-linejoin="round" stroke-linecap="round">

          <path d="M 0 -125 L 30 -38 L 120 -38 L 48 16 L 74 105 L 0 52 L -74 105 L -48 16 L -120 -38 L -30 -38 Z"
                fill="#f5c876" stroke="#c98f2f" stroke-width="5" stroke-linejoin="round"/>
          <circle cx="-20" cy="-10" r="5" fill="#76543d"/>
          <circle cx="20" cy="-10" r="5" fill="#76543d"/>
          <path d="M -12 15 Q 0 28 12 15" fill="none" stroke="#76543d" stroke-width="3" stroke-linecap="round"/>
          <g fill="#f5c876" stroke="#c98f2f" stroke-width="2">
            <path d="M -150 -55 l 6 14 l 14 6 l -14 6 l -6 14 l -6 -14 l -14 -6 l 14 -6 z"/>
            <path d="M 145 75 l 4 10 l 10 4 l -10 4 l -4 10 l -4 -10 l -10 -4 l 10 -4 z"/>
          </g>

      </g>
      <!-- colored art -->
      <g>

          <path d="M 0 -125 L 30 -38 L 120 -38 L 48 16 L 74 105 L 0 52 L -74 105 L -48 16 L -120 -38 L -30 -38 Z"
                fill="#f5c876" stroke="#c98f2f" stroke-width="5" stroke-linejoin="round"/>
          <circle cx="-20" cy="-10" r="5" fill="#76543d"/>
          <circle cx="20" cy="-10" r="5" fill="#76543d"/>
          <path d="M -12 15 Q 0 28 12 15" fill="none" stroke="#76543d" stroke-width="3" stroke-linecap="round"/>
          <g fill="#f5c876" stroke="#c98f2f" stroke-width="2">
            <path d="M -150 -55 l 6 14 l 14 6 l -14 6 l -6 14 l -6 -14 l -14 -6 l 14 -6 z"/>
            <path d="M 145 75 l 4 10 l 10 4 l -10 4 l -4 10 l -4 -10 l -10 -4 l 10 -4 z"/>
          </g>

      </g>
    </g>
  </g>
</svg>
